HIERARCHY
ROOT Hips
{
	OFFSET 0.000000 100.481300 0.000000
	CHANNELS 6 Xposition Yposition Zposition Xrotation Yrotation Zrotation 
	JOINT Spine
	{
		OFFSET -0.279200 12.230698 -2.892100
		CHANNELS 3 Xrotation Yrotation Zrotation
		JOINT Spine1
		{
			OFFSET -0.232667 10.192268 -1.242267
			CHANNELS 3 Xrotation Yrotation Zrotation
			JOINT Spine1_split
			{
				OFFSET -0.232667 10.192268 -1.242267
				CHANNELS 3 Xrotation Yrotation Zrotation
				JOINT Spine2
				{
					OFFSET -0.232667 10.192268 -1.242267
					CHANNELS 3 Xrotation Yrotation Zrotation
					JOINT Neck
					{
						OFFSET -0.418800 17.814194 8.416900
						CHANNELS 3 Xrotation Yrotation Zrotation
						JOINT Head
						{
							OFFSET 0.000000 7.031097 3.806800
							CHANNELS 3 Xrotation Yrotation Zrotation
							JOINT HeadTop_End
							{
								OFFSET 0.000000 24.646606 12.978600
								CHANNELS 3 Xrotation Yrotation Zrotation
								End Site
								{
									OFFSET 0.000000 0.000000 0.000000
								}
							}
						}
					}
					JOINT LeftShoulder
					{
						OFFSET 8.476499 7.247704 -3.868750
						CHANNELS 3 Xrotation Yrotation Zrotation
						JOINT LeftShoulder_split
						{
							OFFSET 8.476499 7.247704 -3.868750
							CHANNELS 3 Xrotation Yrotation Zrotation
							JOINT LeftArm
							{
								OFFSET 9.308998 -2.777710 0.208600
								CHANNELS 3 Xrotation Yrotation Zrotation
								JOINT LeftForeArm
								{
									OFFSET 29.972298 0.000000 0.000000
									CHANNELS 3 Xrotation Yrotation Zrotation
									JOINT LeftHand
									{
										OFFSET 26.026505 0.000000 0.000000
										CHANNELS 3 Xrotation Yrotation Zrotation
										JOINT LeftHandThumb1
										{
											OFFSET 12.240501 -7.147949 9.207150
											CHANNELS 3 Xrotation Yrotation Zrotation
											JOINT LeftHandThumb2
											{
												OFFSET 4.138618 -2.389435 2.389433
												CHANNELS 3 Xrotation Yrotation Zrotation
												JOINT LeftHandThumb3
												{
													OFFSET 2.726913 -1.574387 1.574386
													CHANNELS 3 Xrotation Yrotation Zrotation
													JOINT LeftHandThumb4
													{
														OFFSET 3.941010 -2.275345 2.275342
														CHANNELS 3 Xrotation Yrotation Zrotation
														End Site
														{
															OFFSET 0.000000 0.000000 0.000000
														}
													}
												}
											}
										}
										JOINT LeftHandIndex1
										{
											OFFSET 24.424698 -1.985611 5.953459
											CHANNELS 3 Xrotation Yrotation Zrotation
											JOINT LeftHandIndex2
											{
												OFFSET 6.426697 0.000000 0.000000
												CHANNELS 3 Xrotation Yrotation Zrotation
												JOINT LeftHandIndex3
												{
													OFFSET 5.337898 0.000000 0.000000
													CHANNELS 3 Xrotation Yrotation Zrotation
													JOINT LeftHandIndex4
													{
														OFFSET 4.409401 0.000000 0.000000
														CHANNELS 3 Xrotation Yrotation Zrotation
														End Site
														{
															OFFSET 0.000000 0.000000 0.000000
														}
													}
												}
											}
										}
										JOINT LeftHandMiddle1
										{
											OFFSET 23.810104 0.000000 0.000000
											CHANNELS 3 Xrotation Yrotation Zrotation
											JOINT LeftHandMiddle2
											{
												OFFSET 7.176498 0.000000 0.000000
												CHANNELS 3 Xrotation Yrotation Zrotation
												JOINT LeftHandMiddle3
												{
													OFFSET 6.774902 0.000000 0.000000
													CHANNELS 3 Xrotation Yrotation Zrotation
													JOINT LeftHandMiddle4
													{
														OFFSET 5.403328 0.000000 0.000000
														CHANNELS 3 Xrotation Yrotation Zrotation
														End Site
														{
															OFFSET 0.000000 0.000000 0.000000
														}
													}
												}
											}
										}
										JOINT LeftHandRing1
										{
											OFFSET 22.908401 -0.839279 -6.020567
											CHANNELS 3 Xrotation Yrotation Zrotation
											JOINT LeftHandRing2
											{
												OFFSET 6.337502 0.000000 0.000000
												CHANNELS 3 Xrotation Yrotation Zrotation
												JOINT LeftHandRing3
												{
													OFFSET 5.779297 0.000000 0.000000
													CHANNELS 3 Xrotation Yrotation Zrotation
													JOINT LeftHandRing4
													{
														OFFSET 4.965698 0.000000 0.000000
														CHANNELS 3 Xrotation Yrotation Zrotation
														End Site
														{
															OFFSET 0.000000 0.000000 0.000000
														}
													}
												}
											}
										}
										JOINT LeftHandPinky1
										{
											OFFSET 20.037003 -1.530319 -10.950146
											CHANNELS 3 Xrotation Yrotation Zrotation
											JOINT LeftHandPinky2
											{
												OFFSET 5.254700 0.000000 0.000000
												CHANNELS 3 Xrotation Yrotation Zrotation
												JOINT LeftHandPinky3
												{
													OFFSET 4.810204 0.000000 0.000000
													CHANNELS 3 Xrotation Yrotation Zrotation
													JOINT LeftHandPinky4
													{
														OFFSET 3.647202 0.000000 0.000000
														CHANNELS 3 Xrotation Yrotation Zrotation
														End Site
														{
															OFFSET 0.000000 0.000000 0.000000
														}
													}
												}
											}
										}
									}
								}
							}
						}
					}
					JOINT RightShoulder
					{
						OFFSET -7.570500 7.247704 -3.868750
						CHANNELS 3 Xrotation Yrotation Zrotation
						JOINT RightShoulder_split
						{
							OFFSET -7.570500 7.247704 -3.868750
							CHANNELS 3 Xrotation Yrotation Zrotation
							JOINT RightArm
							{
								OFFSET -9.308998 -2.777710 0.208500
								CHANNELS 3 Xrotation Yrotation Zrotation
								JOINT RightForeArm
								{
									OFFSET -29.972300 0.000000 0.000000
									CHANNELS 3 Xrotation Yrotation Zrotation
									JOINT RightHand
									{
										OFFSET -26.026505 0.000000 0.000000
										CHANNELS 3 Xrotation Yrotation Zrotation
										JOINT RightHandThumb1
										{
											OFFSET -12.240601 -7.148026 9.207092
											CHANNELS 3 Xrotation Yrotation Zrotation
											JOINT RightHandThumb2
											{
												OFFSET -4.138618 -2.389435 2.389433
												CHANNELS 3 Xrotation Yrotation Zrotation
												JOINT RightHandThumb3
												{
													OFFSET -2.726974 -1.574417 1.574421
													CHANNELS 3 Xrotation Yrotation Zrotation
													JOINT RightHandThumb4
													{
														OFFSET -3.941010 -2.275345 2.275343
														CHANNELS 3 Xrotation Yrotation Zrotation
														End Site
														{
															OFFSET 0.000000 0.000000 0.000000
														}
													}
												}
											}
										}
										JOINT RightHandIndex1
										{
											OFFSET -24.424698 -1.985657 5.953444
											CHANNELS 3 Xrotation Yrotation Zrotation
											JOINT RightHandIndex2
											{
												OFFSET -6.426697 0.000000 0.000000
												CHANNELS 3 Xrotation Yrotation Zrotation
												JOINT RightHandIndex3
												{
													OFFSET -5.337898 0.000000 0.000000
													CHANNELS 3 Xrotation Yrotation Zrotation
													JOINT RightHandIndex4
													{
														OFFSET -4.409401 0.000000 0.000000
														CHANNELS 3 Xrotation Yrotation Zrotation
														End Site
														{
															OFFSET 0.000000 0.000000 0.000000
														}
													}
												}
											}
										}
										JOINT RightHandMiddle1
										{
											OFFSET -23.810097 0.000000 0.000000
											CHANNELS 3 Xrotation Yrotation Zrotation
											JOINT RightHandMiddle2
											{
												OFFSET -7.176498 0.000000 0.000000
												CHANNELS 3 Xrotation Yrotation Zrotation
												JOINT RightHandMiddle3
												{
													OFFSET -6.774902 0.000000 0.000000
													CHANNELS 3 Xrotation Yrotation Zrotation
													JOINT RightHandMiddle4
													{
														OFFSET -5.403328 0.000000 0.000000
														CHANNELS 3 Xrotation Yrotation Zrotation
														End Site
														{
															OFFSET 0.000000 0.000000 0.000000
														}
													}
												}
											}
										}
										JOINT RightHandRing1
										{
											OFFSET -22.908302 -0.839325 -6.020576
											CHANNELS 3 Xrotation Yrotation Zrotation
											JOINT RightHandRing2
											{
												OFFSET -6.337502 0.000000 0.000000
												CHANNELS 3 Xrotation Yrotation Zrotation
												JOINT RightHandRing3
												{
													OFFSET -5.779297 0.000000 0.000000
													CHANNELS 3 Xrotation Yrotation Zrotation
													JOINT RightHandRing4
													{
														OFFSET -4.965698 0.000000 0.000000
														CHANNELS 3 Xrotation Yrotation Zrotation
														End Site
														{
															OFFSET 0.000000 0.000000 0.000000
														}
													}
												}
											}
										}
										JOINT RightHandPinky1
										{
											OFFSET -20.037003 -1.530334 -10.950259
											CHANNELS 3 Xrotation Yrotation Zrotation
											JOINT RightHandPinky2
											{
												OFFSET -5.254700 0.000000 0.000000
												CHANNELS 3 Xrotation Yrotation Zrotation
												JOINT RightHandPinky3
												{
													OFFSET -4.810204 0.000000 0.000000
													CHANNELS 3 Xrotation Yrotation Zrotation
													JOINT RightHandPinky4
													{
														OFFSET -3.647202 0.000000 0.000000
														CHANNELS 3 Xrotation Yrotation Zrotation
														End Site
														{
															OFFSET 0.000000 0.000000 0.000000
														}
													}
												}
											}
										}
									}
								}
							}
						}
					}
				}
			}
		}
	}
	JOINT LeftUpLeg
	{
		OFFSET 15.427100 -6.655098 0.678600
		CHANNELS 3 Xrotation Yrotation Zrotation
		JOINT LeftLeg
		{
			OFFSET 4.081073 -39.591068 13.024000
			CHANNELS 3 Xrotation Yrotation Zrotation
			JOINT LeftFoot
			{
				OFFSET -4.081074 -37.707932 -15.979700
				CHANNELS 3 Xrotation Yrotation Zrotation
				JOINT LeftToeBase
				{
					OFFSET 5.346399 -15.068900 20.645000
					CHANNELS 3 Xrotation Yrotation Zrotation
					JOINT LeftToe_End
					{
						OFFSET 2.754700 0.931300 11.300900
						CHANNELS 3 Xrotation Yrotation Zrotation
						End Site
						{
							OFFSET 0.000000 0.000000 0.000000
						}
					}
				}
			}
		}
	}
	JOINT RightUpLeg
	{
		OFFSET -15.569500 -6.655098 0.678600
		CHANNELS 3 Xrotation Yrotation Zrotation
		JOINT RightLeg
		{
			OFFSET -4.081825 -39.591045 13.023800
			CHANNELS 3 Xrotation Yrotation Zrotation
			JOINT RightFoot
			{
				OFFSET 4.081824 -37.707954 -15.979600
				CHANNELS 3 Xrotation Yrotation Zrotation
				JOINT RightToeBase
				{
					OFFSET -5.346400 -15.068900 20.645000
					CHANNELS 3 Xrotation Yrotation Zrotation
					JOINT RightToe_End
					{
						OFFSET -2.754700 0.931300 11.300900
						CHANNELS 3 Xrotation Yrotation Zrotation
						End Site
						{
							OFFSET 0.000000 0.000000 0.000000
						}
					}
				}
			}
		}
	}
}
MOTION
Frames: 4
Frame Time: 0.016667
0.466864 90.544556 -1.461911 -9.667220 5.528557 2.235136 15.989456 -4.932088 -0.006626 2.828926 -1.297233 -0.520220 0.000000 0.000000 0.000000 2.839534 -1.291909 -0.480964 -10.214221 -0.289804 1.928838 0.642531 3.946485 -0.951178 0.000000 -0.000000 -0.000000 1.783135 -2.817867 -5.367186 0.000000 0.000000 0.000000 8.347191 -11.449695 -68.845964 0.000003 -33.539026 0.000008 -23.608527 5.693673 2.838383 -3.469765 3.607323 7.883182 9.703622 22.223509 2.891198 -5.879054 9.699139 15.674849 -0.000001 0.000003 -0.000002 0.162356 3.429610 -10.498180 0.209649 1.554736 -15.358570 0.209648 1.554735 -15.358577 -0.000000 0.000000 -0.000001 0.362542 4.206374 -18.344228 0.474609 2.311791 -23.200221 0.474607 2.311793 -23.200238 0.000000 0.000000 0.000002 0.689026 4.991707 -26.673256 0.865735 3.066787 -31.521439 0.865730 3.066780 -31.521446 0.000000 -0.000000 -0.000000 0.902504 5.377881 -30.995371 1.110593 3.433632 -35.838170 1.110590 3.433624 -35.838149 -0.000000 0.000000 0.000000 0.815659 9.465461 15.261691 0.000000 0.000000 0.000000 -2.962835 1.768749 67.176700 -0.000001 20.011862 0.000003 1.318003 -7.062431 -8.055832 -1.986170 -5.435664 -3.761608 8.766491 -20.697686 -3.062076 -5.504772 -5.510969 -14.718515 0.000002 0.000001 -0.000002 2.057127 -6.108262 55.293557 5.419341 -4.594512 99.429372 3.163284 -4.411568 71.271255 0.000000 -0.000001 0.000003 2.592850 -6.426548 62.973429 4.946630 -4.648190 93.567315 3.098025 -4.388966 70.420575 0.000004 -0.000000 0.000002 2.854993 -6.549359 66.538576 4.919143 -4.649811 93.228209 2.921287 -4.322231 68.093919 0.000002 0.000001 -0.000006 1.542113 -5.696826 47.168200 2.898969 -4.313214 67.797359 2.788737 -4.266687 66.323924 -0.000000 -0.000000 0.000001 -15.681056 5.743620 0.003067 46.529834 -4.027140 -0.686365 5.045977 -0.851989 -0.707835 -23.025587 -1.699923 4.366635 -0.000000 0.000001 0.000000 -4.989217 -7.275659 -0.289377 28.648388 5.711761 3.080518 -13.856290 1.469409 -7.205297 -1.006362 0.000001 -0.000001 0.000000 0.000001 0.000000 
0.402074 91.016045 0.549835 -9.504263 4.746978 2.509702 15.866506 -4.703699 -0.500898 2.864633 -1.219265 -0.580729 0.000000 0.000000 0.000000 2.874598 -1.216439 -0.545703 -10.293798 -0.276139 1.920122 0.424422 4.055672 -0.967052 -0.000000 -0.000000 0.000000 1.743981 -3.170768 -5.307284 0.000000 0.000000 0.000000 8.560803 -9.744662 -69.768627 -0.000004 -31.640742 0.000002 -20.354018 6.201442 1.849370 -3.469765 3.607323 7.883179 9.703622 22.223515 2.891197 -5.879053 9.699142 15.674854 -0.000000 -0.000002 0.000003 0.162356 3.429611 -10.498179 0.209649 1.554736 -15.358575 0.209648 1.554736 -15.358575 -0.000000 -0.000000 -0.000000 0.362542 4.206374 -18.344230 0.474609 2.311791 -23.200223 0.474608 2.311792 -23.200233 0.000000 -0.000000 -0.000000 0.689026 4.991708 -26.673260 0.865735 3.066787 -31.521439 0.865730 3.066780 -31.521446 0.000000 0.000000 0.000000 0.902504 5.377880 -30.995368 1.110593 3.433632 -35.838170 1.110590 3.433625 -35.838146 0.000000 -0.000000 0.000001 0.830229 9.367764 15.335607 0.000000 0.000000 0.000000 -2.994203 1.838904 66.790453 -0.000003 20.328286 0.000032 1.692689 -7.849705 -8.272431 -1.986171 -5.435664 -3.761610 8.766489 -20.697683 -3.062077 -5.504771 -5.510975 -14.718516 0.000004 0.000001 -0.000001 2.057125 -6.108261 55.293557 5.419343 -4.594515 99.429372 3.163286 -4.411572 71.271262 0.000000 -0.000001 -0.000002 2.592848 -6.426548 62.973429 4.946628 -4.648187 93.567315 3.098024 -4.388967 70.420582 -0.000001 -0.000000 -0.000000 2.854991 -6.549360 66.538576 4.919143 -4.649812 93.228209 2.921289 -4.322231 68.093919 0.000001 -0.000001 0.000002 1.542111 -5.696826 47.168200 2.898968 -4.313215 67.797359 2.788737 -4.266689 66.323924 -0.000000 -0.000000 -0.000001 -16.992688 6.278863 -1.855258 42.648514 -4.393843 -0.610493 6.032358 -1.017679 0.505400 -20.164744 -1.473847 4.429054 -0.000000 0.000000 -0.000000 -3.085014 -7.389006 -0.590160 27.519642 5.770201 3.190936 -14.710658 2.460797 -7.299730 -1.006360 0.000000 0.000001 -0.000000 0.000000 0.000000 
0.437555 91.422043 2.608818 -9.317714 4.050029 2.695593 15.675429 -4.486467 -0.872338 2.925965 -1.153219 -0.636157 0.000000 0.000000 0.000000 2.934974 -1.152664 -0.605375 -10.373087 -0.263189 1.911384 0.194516 4.155700 -0.959679 -0.000000 -0.000000 0.000000 1.706084 -3.362187 -5.359653 0.000000 0.000000 0.000000 8.566213 -8.219126 -70.564836 0.000001 -29.568931 0.000029 -16.683215 6.782379 0.412768 -3.469765 3.607323 7.883181 9.703622 22.223516 2.891198 -5.879051 9.699144 15.674854 -0.000001 -0.000002 0.000002 0.162356 3.429611 -10.498180 0.209649 1.554736 -15.358573 0.209648 1.554736 -15.358572 -0.000000 -0.000000 -0.000006 0.362542 4.206374 -18.344228 0.474609 2.311791 -23.200223 0.474606 2.311793 -23.200232 -0.000000 0.000000 0.000002 0.689026 4.991707 -26.673260 0.865735 3.066787 -31.521439 0.865730 3.066780 -31.521443 0.000000 0.000000 -0.000000 0.902504 5.377880 -30.995368 1.110593 3.433632 -35.838173 1.110590 3.433625 -35.838153 0.000000 0.000000 0.000001 0.840509 9.299992 15.386815 0.000000 0.000000 0.000000 -3.179688 1.962936 66.379228 -0.000004 20.310423 -0.000008 1.979821 -8.025346 -8.406084 -1.986171 -5.435663 -3.761611 8.766488 -20.697681 -3.062072 -5.504773 -5.510969 -14.718518 -0.000003 0.000001 -0.000001 2.057125 -6.108263 55.293554 5.419343 -4.594513 99.429372 3.163285 -4.411568 71.271255 -0.000000 -0.000000 0.000002 2.592849 -6.426548 62.973429 4.946630 -4.648187 93.567315 3.098024 -4.388967 70.420575 -0.000001 -0.000001 0.000001 2.854994 -6.549360 66.538569 4.919142 -4.649812 93.228203 2.921291 -4.322231 68.093926 0.000002 -0.000001 0.000003 1.542111 -5.696826 47.168200 2.898968 -4.313214 67.797359 2.788737 -4.266687 66.323930 -0.000000 -0.000000 -0.000001 -18.489541 6.344855 -3.093970 39.264780 -4.284397 -0.536459 6.091724 -0.537847 0.127969 -13.819602 -1.078777 5.051204 0.000000 0.000000 0.000000 -1.163589 -7.405759 -0.866751 26.359351 5.835030 3.308781 -15.593699 3.258394 -7.294593 -1.006360 -0.000000 0.000000 0.000000 0.000000 0.000000 
0.476643 92.112663 4.792850 -9.116469 3.283730 2.985888 15.469033 -4.275841 -1.366292 2.992097 -1.077589 -0.696962 0.000000 0.000000 0.000000 3.000078 -1.079577 -0.670915 -10.460874 -0.248840 1.903442 -0.064420 4.273281 -0.953785 -0.000000 0.000000 -0.000000 1.662389 -3.586410 -5.415226 0.000000 0.000000 0.000000 8.625616 -6.507510 -71.432345 -0.000006 -27.273618 0.000006 -12.557440 7.323398 -1.225767 -3.469765 3.607323 7.883182 9.703623 22.223518 2.891199 -5.879053 9.699138 15.674852 0.000001 -0.000000 -0.000001 0.162356 3.429611 -10.498182 0.209649 1.554736 -15.358575 0.209648 1.554735 -15.358577 -0.000000 0.000000 -0.000000 0.362543 4.206374 -18.344228 0.474609 2.311790 -23.200218 0.474607 2.311792 -23.200237 -0.000000 -0.000000 0.000001 0.689027 4.991708 -26.673260 0.865734 3.066786 -31.521443 0.865730 3.066778 -31.521446 -0.000001 0.000000 -0.000000 0.902504 5.377880 -30.995371 1.110593 3.433631 -35.838170 1.110590 3.433624 -35.838149 -0.000001 0.000001 -0.000001 0.852754 9.220243 15.447168 0.000000 0.000000 0.000000 -3.645490 2.192716 65.984231 0.000010 19.518034 -0.000039 2.258818 -7.623023 -8.499314 -1.986174 -5.435664 -3.761609 8.766491 -20.697683 -3.062072 -5.504770 -5.510971 -14.718518 -0.000001 -0.000000 -0.000001 2.057123 -6.108263 55.293551 5.419344 -4.594511 99.429366 3.163285 -4.411570 71.271255 0.000001 0.000000 -0.000000 2.592848 -6.426548 62.973429 4.946631 -4.648190 93.567315 3.098024 -4.388968 70.420575 -0.000001 0.000000 -0.000001 2.854991 -6.549360 66.538576 4.919142 -4.649811 93.228203 2.921292 -4.322230 68.093926 0.000000 0.000000 -0.000001 1.542110 -5.696827 47.168200 2.898966 -4.313213 67.797359 2.788737 -4.266686 66.323924 -0.000001 -0.000000 -0.000001 -19.409263 6.359150 -4.488419 34.247241 -4.183571 -0.473142 6.580414 0.067936 0.033710 -6.536052 -0.272239 3.279037 -0.000000 0.000000 0.000000 1.161128 -7.357312 -1.264925 24.395506 5.858736 3.427955 -16.118560 4.052686 -7.166453 -1.002988 -0.000001 -0.000001 -0.000000 0.000000 -0.000000 
